<?xml version="1.0" encoding="UTF-8" standalone="no"?>
<!DOCTYPE svg PUBLIC "-//W3C//DTD SVG 1.1//EN"
 "http://www.w3.org/Graphics/SVG/1.1/DTD/svg11.dtd">
<!-- Generated by graphviz version 2.42.4 (0)
 -->
<!-- Title: G Pages: 1 -->
<svg width="950pt" height="175pt"
 viewBox="0.00 0.00 950.20 175.20" xmlns="http://www.w3.org/2000/svg" xmlns:xlink="http://www.w3.org/1999/xlink">
<g id="graph0" class="graph" transform="scale(1 1) rotate(0) translate(21.6 153.6)">
<title>G</title>
<!-- v -->
<g id="node1" class="node">
<title>v</title>
<path fill="#f7f9fc" stroke="#64748b" d="M128,-79C128,-79 12,-79 12,-79 6,-79 0,-73 0,-67 0,-67 0,-55 0,-55 0,-49 6,-43 12,-43 12,-43 128,-43 128,-43 134,-43 140,-49 140,-55 140,-55 140,-67 140,-67 140,-73 134,-79 128,-79"/>
<text text-anchor="middle" x="70" y="-64.2" font-family="DejaVu Sans" font-size="11.00">Vendor D</text>
<text text-anchor="middle" x="70" y="-52.2" font-family="DejaVu Sans" font-size="11.00">subgroup proxy stress</text>
</g>
<!-- q -->
<g id="node2" class="node">
<title>q</title>
<path fill="#ecfdf5" stroke="#047857" d="M287,-79C287,-79 210,-79 210,-79 204,-79 198,-73 198,-67 198,-67 198,-55 198,-55 198,-49 204,-43 210,-43 210,-43 287,-43 287,-43 293,-43 299,-49 299,-55 299,-55 299,-67 299,-67 299,-73 293,-79 287,-79"/>
<text text-anchor="middle" x="248.5" y="-64.2" font-family="DejaVu Sans" font-size="11.00">Phase 2 quality</text>
<text text-anchor="middle" x="248.5" y="-52.2" font-family="DejaVu Sans" font-size="11.00">PASS</text>
</g>
<!-- v&#45;&gt;q -->
<g id="edge1" class="edge">
<title>v&#45;&gt;q</title>
<path fill="none" stroke="#475569" stroke-width="1.4" d="M140.25,-61C156.62,-61 173.9,-61 189.7,-61"/>
<polygon fill="#475569" stroke="#475569" stroke-width="1.4" points="189.81,-63.8 197.81,-61 189.81,-58.2 189.81,-63.8"/>
</g>
<!-- d -->
<g id="node3" class="node">
<title>d</title>
<path fill="#ecfdf5" stroke="#047857" d="M491,-79C491,-79 369,-79 369,-79 363,-79 357,-73 357,-67 357,-67 357,-55 357,-55 357,-49 363,-43 369,-43 369,-43 491,-43 491,-43 497,-43 503,-49 503,-55 503,-55 503,-67 503,-67 503,-73 497,-79 491,-79"/>
<text text-anchor="middle" x="430" y="-64.2" font-family="DejaVu Sans" font-size="11.00">Phase 3 aggregate drift</text>
<text text-anchor="middle" x="430" y="-52.2" font-family="DejaVu Sans" font-size="11.00">STABLE</text>
</g>
<!-- q&#45;&gt;d -->
<g id="edge2" class="edge">
<title>q&#45;&gt;d</title>
<path fill="none" stroke="#475569" stroke-width="1.4" d="M299.02,-61C314.36,-61 331.68,-61 348.55,-61"/>
<polygon fill="#475569" stroke="#475569" stroke-width="1.4" points="348.79,-63.8 356.79,-61 348.79,-58.2 348.79,-63.8"/>
</g>
<!-- f -->
<g id="node4" class="node">
<title>f</title>
<path fill="#fff1f2" stroke="#be123c" d="M692.5,-132C692.5,-132 587.5,-132 587.5,-132 581.5,-132 575.5,-126 575.5,-120 575.5,-120 575.5,-88 575.5,-88 575.5,-82 581.5,-76 587.5,-76 587.5,-76 692.5,-76 692.5,-76 698.5,-76 704.5,-82 704.5,-88 704.5,-88 704.5,-120 704.5,-120 704.5,-126 698.5,-132 692.5,-132"/>
<text text-anchor="middle" x="640" y="-119.2" font-family="DejaVu Sans" font-size="11.00">Fairness metrics</text>
<text text-anchor="middle" x="640" y="-107.2" font-family="DejaVu Sans" font-size="11.00">DP ratio 0.7480</text>
<text text-anchor="middle" x="640" y="-95.2" font-family="DejaVu Sans" font-size="11.00">Selection diff 0.1860</text>
<text text-anchor="middle" x="640" y="-83.2" font-family="DejaVu Sans" font-size="11.00">EO diff 0.2269</text>
</g>
<!-- d&#45;&gt;f -->
<g id="edge3" class="edge">
<title>d&#45;&gt;f</title>
<path fill="none" stroke="#475569" stroke-width="1.4" d="M503.16,-75.92C523.97,-80.22 546.66,-84.91 567.44,-89.21"/>
<polygon fill="#475569" stroke="#475569" stroke-width="1.4" points="566.89,-91.95 575.29,-90.83 568.03,-86.47 566.89,-91.95"/>
</g>
<!-- s -->
<g id="node5" class="node">
<title>s</title>
<path fill="#f7f9fc" stroke="#64748b" d="M707,-36C707,-36 573,-36 573,-36 567,-36 561,-30 561,-24 561,-24 561,-12 561,-12 561,-6 567,0 573,0 573,0 707,0 707,0 713,0 719,-6 719,-12 719,-12 719,-24 719,-24 719,-30 713,-36 707,-36"/>
<text text-anchor="middle" x="640" y="-21.2" font-family="DejaVu Sans" font-size="11.00">SHAP investigation</text>
<text text-anchor="middle" x="640" y="-9.2" font-family="DejaVu Sans" font-size="11.00">proxy feature importance</text>
</g>
<!-- d&#45;&gt;s -->
<g id="edge5" class="edge">
<title>d&#45;&gt;s</title>
<path fill="none" stroke="#475569" stroke-width="1.4" d="M503.16,-46.08C519.2,-42.77 536.35,-39.22 552.88,-35.8"/>
<polygon fill="#475569" stroke="#475569" stroke-width="1.4" points="553.66,-38.5 560.93,-34.14 552.53,-33.02 553.66,-38.5"/>
</g>
<!-- r -->
<g id="node6" class="node">
<title>r</title>
<path fill="#fff1f2" stroke="#be123c" d="M895,-79C895,-79 789,-79 789,-79 783,-79 777,-73 777,-67 777,-67 777,-55 777,-55 777,-49 783,-43 789,-43 789,-43 895,-43 895,-43 901,-43 907,-49 907,-55 907,-55 907,-67 907,-67 907,-73 901,-79 895,-79"/>
<text text-anchor="middle" x="842" y="-64.2" font-family="DejaVu Sans" font-size="11.00">Fairness governance</text>
<text text-anchor="middle" x="842" y="-52.2" font-family="DejaVu Sans" font-size="11.00">FAIL</text>
</g>
<!-- f&#45;&gt;r -->
<g id="edge4" class="edge">
<title>f&#45;&gt;r</title>
<path fill="none" stroke="#475569" stroke-width="1.4" d="M704.56,-90.34C725.04,-85.93 747.9,-81.02 768.95,-76.49"/>
<polygon fill="#475569" stroke="#475569" stroke-width="1.4" points="769.69,-79.2 776.92,-74.78 768.51,-73.72 769.69,-79.2"/>
</g>
<!-- s&#45;&gt;r -->
<g id="edge6" class="edge">
<title>s&#45;&gt;r</title>
<path fill="none" stroke="#475569" stroke-width="1.4" d="M719.18,-34.81C735.57,-38.33 752.77,-42.03 768.92,-45.5"/>
<polygon fill="#475569" stroke="#475569" stroke-width="1.4" points="768.34,-48.24 776.75,-47.19 769.52,-42.77 768.34,-48.24"/>
</g>
</g>
</svg>
