<?xml version="1.0" encoding="UTF-8" standalone="no"?>
<!DOCTYPE svg PUBLIC "-//W3C//DTD SVG 1.1//EN"
 "http://www.w3.org/Graphics/SVG/1.1/DTD/svg11.dtd">
<!-- Generated by graphviz version 2.42.4 (0)
 -->
<!-- Title: Phase10 Pages: 1 -->
<svg width="1562pt" height="106pt"
 viewBox="0.00 0.00 1562.00 106.00" xmlns="http://www.w3.org/2000/svg" xmlns:xlink="http://www.w3.org/1999/xlink">
<g id="graph0" class="graph" transform="scale(1 1) rotate(0) translate(4 102)">
<title>Phase10</title>
<polygon fill="white" stroke="transparent" points="-4,4 -4,-102 1558,-102 1558,4 -4,4"/>
<text text-anchor="middle" x="777" y="-78" font-family="Times,serif" font-size="20.00">Phase 10 — Root&#45;Cause Ablation &amp; Remediation Governance</text>
<!-- factors -->
<g id="node1" class="node">
<title>factors</title>
<path fill="none" stroke="black" d="M127,-56C127,-56 12,-56 12,-56 6,-56 0,-50 0,-44 0,-44 0,-24 0,-24 0,-18 6,-12 12,-12 12,-12 127,-12 127,-12 133,-12 139,-18 139,-24 139,-24 139,-44 139,-44 139,-50 133,-56 127,-56"/>
<text text-anchor="middle" x="69.5" y="-43.2" font-family="Times,serif" font-size="11.00">Vendor B factors</text>
<text text-anchor="middle" x="69.5" y="-31.2" font-family="Times,serif" font-size="11.00">Semantic migration</text>
<text text-anchor="middle" x="69.5" y="-19.2" font-family="Times,serif" font-size="11.00">Elevated missingness</text>
</g>
<!-- scenarios -->
<g id="node2" class="node">
<title>scenarios</title>
<path fill="none" stroke="black" d="M276,-68C276,-68 187,-68 187,-68 181,-68 175,-62 175,-56 175,-56 175,-12 175,-12 175,-6 181,0 187,0 187,0 276,0 276,0 282,0 288,-6 288,-12 288,-12 288,-56 288,-56 288,-62 282,-68 276,-68"/>
<text text-anchor="middle" x="231.5" y="-55.2" font-family="Times,serif" font-size="11.00">2×2 ablation</text>
<text text-anchor="middle" x="231.5" y="-43.2" font-family="Times,serif" font-size="11.00">healthy</text>
<text text-anchor="middle" x="231.5" y="-31.2" font-family="Times,serif" font-size="11.00">semantic&#45;only</text>
<text text-anchor="middle" x="231.5" y="-19.2" font-family="Times,serif" font-size="11.00">missingness&#45;only</text>
<text text-anchor="middle" x="231.5" y="-7.2" font-family="Times,serif" font-size="11.00">combined</text>
</g>
<!-- factors&#45;&gt;scenarios -->
<g id="edge1" class="edge">
<title>factors&#45;&gt;scenarios</title>
<path fill="none" stroke="black" d="M139.28,-34C147.71,-34 156.31,-34 164.7,-34"/>
<polygon fill="black" stroke="black" points="164.79,-37.5 174.79,-34 164.79,-30.5 164.79,-37.5"/>
</g>
<!-- fixed -->
<g id="node3" class="node">
<title>fixed</title>
<path fill="none" stroke="black" d="M473,-52C473,-52 336,-52 336,-52 330,-52 324,-46 324,-40 324,-40 324,-28 324,-28 324,-22 330,-16 336,-16 336,-16 473,-16 473,-16 479,-16 485,-22 485,-28 485,-28 485,-40 485,-40 485,-46 479,-52 473,-52"/>
<text text-anchor="middle" x="404.5" y="-37.2" font-family="Times,serif" font-size="11.00">Fixed population + labels</text>
<text text-anchor="middle" x="404.5" y="-25.2" font-family="Times,serif" font-size="11.00">Fixed model + threshold</text>
</g>
<!-- scenarios&#45;&gt;fixed -->
<g id="edge2" class="edge">
<title>scenarios&#45;&gt;fixed</title>
<path fill="none" stroke="black" d="M288.02,-34C296.22,-34 304.84,-34 313.53,-34"/>
<polygon fill="black" stroke="black" points="313.73,-37.5 323.73,-34 313.73,-30.5 313.73,-37.5"/>
</g>
<!-- metrics -->
<g id="node4" class="node">
<title>metrics</title>
<path fill="none" stroke="black" d="M658,-52C658,-52 533,-52 533,-52 527,-52 521,-46 521,-40 521,-40 521,-28 521,-28 521,-22 527,-16 533,-16 533,-16 658,-16 658,-16 664,-16 670,-22 670,-28 670,-28 670,-40 670,-40 670,-46 664,-52 658,-52"/>
<text text-anchor="middle" x="595.5" y="-37.2" font-family="Times,serif" font-size="11.00">AUC • approval</text>
<text text-anchor="middle" x="595.5" y="-25.2" font-family="Times,serif" font-size="11.00">approved default • flips</text>
</g>
<!-- fixed&#45;&gt;metrics -->
<g id="edge3" class="edge">
<title>fixed&#45;&gt;metrics</title>
<path fill="none" stroke="black" d="M485.11,-34C493.5,-34 502.05,-34 510.49,-34"/>
<polygon fill="black" stroke="black" points="510.71,-37.5 520.71,-34 510.71,-30.5 510.71,-37.5"/>
</g>
<!-- diagnostic -->
<g id="node5" class="node">
<title>diagnostic</title>
<path fill="none" stroke="black" d="M879,-52C879,-52 718,-52 718,-52 712,-52 706,-46 706,-40 706,-40 706,-28 706,-28 706,-22 712,-16 718,-16 718,-16 879,-16 879,-16 885,-16 891,-22 891,-28 891,-28 891,-40 891,-40 891,-46 885,-52 879,-52"/>
<text text-anchor="middle" x="798.5" y="-37.2" font-family="Times,serif" font-size="11.00">Median&#45;imputation diagnostic</text>
<text text-anchor="middle" x="798.5" y="-25.2" font-family="Times,serif" font-size="11.00">+ fixed&#45;model counterfactuals</text>
</g>
<!-- metrics&#45;&gt;diagnostic -->
<g id="edge4" class="edge">
<title>metrics&#45;&gt;diagnostic</title>
<path fill="none" stroke="black" d="M670.2,-34C678.5,-34 687.06,-34 695.63,-34"/>
<polygon fill="black" stroke="black" points="695.68,-37.5 705.68,-34 695.68,-30.5 695.68,-37.5"/>
</g>
<!-- candidate -->
<g id="node6" class="node">
<title>candidate</title>
<path fill="none" stroke="black" d="M1070,-52C1070,-52 939,-52 939,-52 933,-52 927,-46 927,-40 927,-40 927,-28 927,-28 927,-22 933,-16 939,-16 939,-16 1070,-16 1070,-16 1076,-16 1082,-22 1082,-28 1082,-28 1082,-40 1082,-40 1082,-46 1076,-52 1070,-52"/>
<text text-anchor="middle" x="1004.5" y="-37.2" font-family="Times,serif" font-size="11.00">q75 validation candidate</text>
<text text-anchor="middle" x="1004.5" y="-25.2" font-family="Times,serif" font-size="11.00">DIAGNOSTIC ONLY</text>
</g>
<!-- diagnostic&#45;&gt;candidate -->
<g id="edge5" class="edge">
<title>diagnostic&#45;&gt;candidate</title>
<path fill="none" stroke="black" d="M891.06,-34C899.57,-34 908.17,-34 916.64,-34"/>
<polygon fill="black" stroke="black" points="916.88,-37.5 926.88,-34 916.88,-30.5 916.88,-37.5"/>
</g>
<!-- governance -->
<g id="node7" class="node">
<title>governance</title>
<path fill="none" stroke="black" d="M1330,-52C1330,-52 1130,-52 1130,-52 1124,-52 1118,-46 1118,-40 1118,-40 1118,-28 1118,-28 1118,-22 1124,-16 1130,-16 1130,-16 1330,-16 1330,-16 1336,-16 1342,-22 1342,-28 1342,-28 1342,-40 1342,-40 1342,-46 1336,-52 1330,-52"/>
<text text-anchor="middle" x="1230" y="-37.2" font-family="Times,serif" font-size="11.00">Vendor B remains BLOCKED</text>
<text text-anchor="middle" x="1230" y="-25.2" font-family="Times,serif" font-size="11.00">Production preprocessing unchanged</text>
</g>
<!-- candidate&#45;&gt;governance -->
<g id="edge6" class="edge">
<title>candidate&#45;&gt;governance</title>
<path fill="none" stroke="black" d="M1082.1,-34C1090.37,-34 1098.92,-34 1107.55,-34"/>
<polygon fill="black" stroke="black" points="1107.7,-37.5 1117.7,-34 1107.7,-30.5 1107.7,-37.5"/>
</g>
<!-- evidence -->
<g id="node8" class="node">
<title>evidence</title>
<path fill="none" stroke="black" d="M1542,-52C1542,-52 1390,-52 1390,-52 1384,-52 1378,-46 1378,-40 1378,-40 1378,-28 1378,-28 1378,-22 1384,-16 1390,-16 1390,-16 1542,-16 1542,-16 1548,-16 1554,-22 1554,-28 1554,-28 1554,-40 1554,-40 1554,-46 1548,-52 1542,-52"/>
<text text-anchor="middle" x="1466" y="-31.2" font-family="Times,serif" font-size="11.00">Phase 10 evidence + hashes</text>
</g>
<!-- governance&#45;&gt;evidence -->
<g id="edge7" class="edge">
<title>governance&#45;&gt;evidence</title>
<path fill="none" stroke="black" d="M1342.17,-34C1350.73,-34 1359.32,-34 1367.77,-34"/>
<polygon fill="black" stroke="black" points="1368,-37.5 1378,-34 1368,-30.5 1368,-37.5"/>
</g>
</g>
</svg>
