<?xml version="1.0" encoding="UTF-8" standalone="no"?>
<!DOCTYPE svg PUBLIC "-//W3C//DTD SVG 1.1//EN"
 "http://www.w3.org/Graphics/SVG/1.1/DTD/svg11.dtd">
<!-- Generated by graphviz version 2.42.4 (0)
 -->
<!-- Title: Phase9 Pages: 1 -->
<svg width="1207pt" height="128pt"
 viewBox="0.00 0.00 1207.00 128.00" xmlns="http://www.w3.org/2000/svg" xmlns:xlink="http://www.w3.org/1999/xlink">
<g id="graph0" class="graph" transform="scale(1 1) rotate(0) translate(4 124)">
<title>Phase9</title>
<polygon fill="white" stroke="transparent" points="-4,4 -4,-124 1203,-124 1203,4 -4,4"/>
<text text-anchor="middle" x="599.5" y="-100" font-family="Times,serif" font-size="20.00">Phase 9 — Business Impact &amp; Incident Outcome Evidence</text>
<!-- population -->
<g id="node1" class="node">
<title>population</title>
<path fill="none" stroke="black" d="M142,-63C142,-63 12,-63 12,-63 6,-63 0,-57 0,-51 0,-51 0,-39 0,-39 0,-33 6,-27 12,-27 12,-27 142,-27 142,-27 148,-27 154,-33 154,-39 154,-39 154,-51 154,-51 154,-57 148,-63 142,-63"/>
<text text-anchor="middle" x="77" y="-48.2" font-family="Times,serif" font-size="11.00">Same 15,000 applicants</text>
<text text-anchor="middle" x="77" y="-36.2" font-family="Times,serif" font-size="11.00">Same default_30d labels</text>
</g>
<!-- healthy -->
<g id="node2" class="node">
<title>healthy</title>
<path fill="none" stroke="black" d="M276,-90C276,-90 204,-90 204,-90 198,-90 192,-84 192,-78 192,-78 192,-66 192,-66 192,-60 198,-54 204,-54 204,-54 276,-54 276,-54 282,-54 288,-60 288,-66 288,-66 288,-78 288,-78 288,-84 282,-90 276,-90"/>
<text text-anchor="middle" x="240" y="-75.2" font-family="Times,serif" font-size="11.00">Vendor A</text>
<text text-anchor="middle" x="240" y="-63.2" font-family="Times,serif" font-size="11.00">healthy inputs</text>
</g>
<!-- population&#45;&gt;healthy -->
<g id="edge1" class="edge">
<title>population&#45;&gt;healthy</title>
<path fill="none" stroke="black" d="M154.26,-57.79C163.59,-59.35 172.99,-60.93 181.97,-62.44"/>
<polygon fill="black" stroke="black" points="181.46,-65.9 191.9,-64.1 182.62,-59 181.46,-65.9"/>
</g>
<!-- incident -->
<g id="node3" class="node">
<title>incident</title>
<path fill="none" stroke="black" d="M278,-36C278,-36 202,-36 202,-36 196,-36 190,-30 190,-24 190,-24 190,-12 190,-12 190,-6 196,0 202,0 202,0 278,0 278,0 284,0 290,-6 290,-12 290,-12 290,-24 290,-24 290,-30 284,-36 278,-36"/>
<text text-anchor="middle" x="240" y="-21.2" font-family="Times,serif" font-size="11.00">Vendor B</text>
<text text-anchor="middle" x="240" y="-9.2" font-family="Times,serif" font-size="11.00">incident inputs</text>
</g>
<!-- population&#45;&gt;incident -->
<g id="edge2" class="edge">
<title>population&#45;&gt;incident</title>
<path fill="none" stroke="black" d="M154.26,-32.21C162.81,-30.78 171.42,-29.33 179.72,-27.94"/>
<polygon fill="black" stroke="black" points="180.36,-31.38 189.65,-26.28 179.2,-24.48 180.36,-31.38"/>
</g>
<!-- model -->
<g id="node4" class="node">
<title>model</title>
<path fill="none" stroke="black" d="M457,-63C457,-63 338,-63 338,-63 332,-63 326,-57 326,-51 326,-51 326,-39 326,-39 326,-33 332,-27 338,-27 338,-27 457,-27 457,-27 463,-27 469,-33 469,-39 469,-39 469,-51 469,-51 469,-57 463,-63 457,-63"/>
<text text-anchor="middle" x="397.5" y="-48.2" font-family="Times,serif" font-size="11.00">Same persisted model</text>
<text text-anchor="middle" x="397.5" y="-36.2" font-family="Times,serif" font-size="11.00">threshold = 0.50</text>
</g>
<!-- healthy&#45;&gt;model -->
<g id="edge3" class="edge">
<title>healthy&#45;&gt;model</title>
<path fill="none" stroke="black" d="M288.08,-63.83C296.9,-62.29 306.35,-60.65 315.86,-59"/>
<polygon fill="black" stroke="black" points="316.51,-62.44 325.77,-57.28 315.32,-55.54 316.51,-62.44"/>
</g>
<!-- incident&#45;&gt;model -->
<g id="edge4" class="edge">
<title>incident&#45;&gt;model</title>
<path fill="none" stroke="black" d="M290.2,-26.54C298.41,-27.97 307.11,-29.48 315.87,-31"/>
<polygon fill="black" stroke="black" points="315.29,-34.45 325.75,-32.71 316.49,-27.56 315.29,-34.45"/>
</g>
<!-- compare -->
<g id="node5" class="node">
<title>compare</title>
<path fill="none" stroke="black" d="M627,-63C627,-63 517,-63 517,-63 511,-63 505,-57 505,-51 505,-51 505,-39 505,-39 505,-33 511,-27 517,-27 517,-27 627,-27 627,-27 633,-27 639,-33 639,-39 639,-39 639,-51 639,-51 639,-57 633,-63 627,-63"/>
<text text-anchor="middle" x="572" y="-42.2" font-family="Times,serif" font-size="11.00">Decision comparison</text>
</g>
<!-- model&#45;&gt;compare -->
<g id="edge5" class="edge">
<title>model&#45;&gt;compare</title>
<path fill="none" stroke="black" d="M469.16,-45C477.56,-45 486.17,-45 494.64,-45"/>
<polygon fill="black" stroke="black" points="494.89,-48.5 504.89,-45 494.89,-41.5 494.89,-48.5"/>
</g>
<!-- metrics -->
<g id="node6" class="node">
<title>metrics</title>
<path fill="none" stroke="black" d="M803,-73C803,-73 687,-73 687,-73 681,-73 675,-67 675,-61 675,-61 675,-29 675,-29 675,-23 681,-17 687,-17 687,-17 803,-17 803,-17 809,-17 815,-23 815,-29 815,-29 815,-61 815,-61 815,-67 809,-73 803,-73"/>
<text text-anchor="middle" x="745" y="-60.2" font-family="Times,serif" font-size="11.00">Approval rate</text>
<text text-anchor="middle" x="745" y="-48.2" font-family="Times,serif" font-size="11.00">Approved default rate</text>
<text text-anchor="middle" x="745" y="-36.2" font-family="Times,serif" font-size="11.00">Risk delta</text>
<text text-anchor="middle" x="745" y="-24.2" font-family="Times,serif" font-size="11.00">Decision flips</text>
</g>
<!-- compare&#45;&gt;metrics -->
<g id="edge6" class="edge">
<title>compare&#45;&gt;metrics</title>
<path fill="none" stroke="black" d="M639.11,-45C647.56,-45 656.27,-45 664.89,-45"/>
<polygon fill="black" stroke="black" points="664.95,-48.5 674.95,-45 664.95,-41.5 664.95,-48.5"/>
</g>
<!-- evidence -->
<g id="node7" class="node">
<title>evidence</title>
<path fill="none" stroke="black" d="M1045,-67C1045,-67 863,-67 863,-67 857,-67 851,-61 851,-55 851,-55 851,-35 851,-35 851,-29 857,-23 863,-23 863,-23 1045,-23 1045,-23 1051,-23 1057,-29 1057,-35 1057,-35 1057,-55 1057,-55 1057,-61 1051,-67 1045,-67"/>
<text text-anchor="middle" x="954" y="-54.2" font-family="Times,serif" font-size="11.00">business_impact.json</text>
<text text-anchor="middle" x="954" y="-42.2" font-family="Times,serif" font-size="11.00">cohort_summary.csv</text>
<text text-anchor="middle" x="954" y="-30.2" font-family="Times,serif" font-size="11.00">decision_transition_summary.json</text>
</g>
<!-- metrics&#45;&gt;evidence -->
<g id="edge7" class="edge">
<title>metrics&#45;&gt;evidence</title>
<path fill="none" stroke="black" d="M815.22,-45C823.41,-45 831.93,-45 840.53,-45"/>
<polygon fill="black" stroke="black" points="840.65,-48.5 850.65,-45 840.65,-41.5 840.65,-48.5"/>
</g>
<!-- verify -->
<g id="node8" class="node">
<title>verify</title>
<path fill="none" stroke="black" d="M1187,-63C1187,-63 1105,-63 1105,-63 1099,-63 1093,-57 1093,-51 1093,-51 1093,-39 1093,-39 1093,-33 1099,-27 1105,-27 1105,-27 1187,-27 1187,-27 1193,-27 1199,-33 1199,-39 1199,-39 1199,-51 1199,-51 1199,-57 1193,-63 1187,-63"/>
<text text-anchor="middle" x="1146" y="-42.2" font-family="Times,serif" font-size="11.00">Phase 9 verifier</text>
</g>
<!-- evidence&#45;&gt;verify -->
<g id="edge8" class="edge">
<title>evidence&#45;&gt;verify</title>
<path fill="none" stroke="black" d="M1057.23,-45C1065.88,-45 1074.44,-45 1082.64,-45"/>
<polygon fill="black" stroke="black" points="1082.8,-48.5 1092.8,-45 1082.8,-41.5 1082.8,-48.5"/>
</g>
</g>
</svg>
