<?xml version="1.0" encoding="UTF-8" standalone="no"?>
<!DOCTYPE svg PUBLIC "-//W3C//DTD SVG 1.1//EN"
 "http://www.w3.org/Graphics/SVG/1.1/DTD/svg11.dtd">
<!-- Generated by graphviz version 2.42.4 (0)
 -->
<!-- Title: G Pages: 1 -->
<svg width="1514pt" height="121pt"
 viewBox="0.00 0.00 1513.69 121.00" xmlns="http://www.w3.org/2000/svg" xmlns:xlink="http://www.w3.org/1999/xlink">
<g id="graph0" class="graph" transform="scale(1 1) rotate(0) translate(4 117)">
<title>G</title>
<polygon fill="white" stroke="transparent" points="-4,4 -4,-117 1509.69,-117 1509.69,4 -4,4"/>
<text text-anchor="middle" x="752.85" y="-101" font-family="Times,serif" font-size="10.00">Phase 7 &#45; Automation and Deployment Controls</text>
<!-- A -->
<g id="node1" class="node">
<title>A</title>
<path fill="#fff7ec" stroke="#c27b2a" d="M133,-66C133,-66 12,-66 12,-66 6,-66 0,-60 0,-54 0,-54 0,-40 0,-40 0,-34 6,-28 12,-28 12,-28 133,-28 133,-28 139,-28 145,-34 145,-40 145,-40 145,-54 145,-54 145,-60 139,-66 133,-66"/>
<text text-anchor="middle" x="72.5" y="-50.8" font-family="Times,serif" font-size="14.00">GitHub Actions</text>
<text text-anchor="middle" x="72.5" y="-35.8" font-family="Times,serif" font-size="14.00">quality + security</text>
</g>
<!-- B -->
<g id="node2" class="node">
<title>B</title>
<path fill="#fff7ec" stroke="#c27b2a" d="M298,-66C298,-66 194,-66 194,-66 188,-66 182,-60 182,-54 182,-54 182,-40 182,-40 182,-34 188,-28 194,-28 194,-28 298,-28 298,-28 304,-28 310,-34 310,-40 310,-40 310,-54 310,-54 310,-60 304,-66 298,-66"/>
<text text-anchor="middle" x="246" y="-50.8" font-family="Times,serif" font-size="14.00">Container build</text>
<text text-anchor="middle" x="246" y="-35.8" font-family="Times,serif" font-size="14.00">and scan</text>
</g>
<!-- A&#45;&gt;B -->
<g id="edge1" class="edge">
<title>A&#45;&gt;B</title>
<path fill="none" stroke="#c27b2a" d="M145.24,-47C153.95,-47 162.85,-47 171.58,-47"/>
<polygon fill="#c27b2a" stroke="#c27b2a" points="171.73,-50.5 181.73,-47 171.73,-43.5 171.73,-50.5"/>
</g>
<!-- C -->
<g id="node3" class="node">
<title>C</title>
<path fill="#fff7ec" stroke="#c27b2a" d="M467,-66C467,-66 359,-66 359,-66 353,-66 347,-60 347,-54 347,-54 347,-40 347,-40 347,-34 353,-28 359,-28 359,-28 467,-28 467,-28 473,-28 479,-34 479,-40 479,-40 479,-54 479,-54 479,-60 473,-66 467,-66"/>
<text text-anchor="middle" x="413" y="-50.8" font-family="Times,serif" font-size="14.00">Deploy preflight</text>
<text text-anchor="middle" x="413" y="-35.8" font-family="Times,serif" font-size="14.00">checks</text>
</g>
<!-- B&#45;&gt;C -->
<g id="edge2" class="edge">
<title>B&#45;&gt;C</title>
<path fill="none" stroke="#c27b2a" d="M310.32,-47C318.94,-47 327.86,-47 336.67,-47"/>
<polygon fill="#c27b2a" stroke="#c27b2a" points="336.94,-50.5 346.94,-47 336.94,-43.5 336.94,-50.5"/>
</g>
<!-- D -->
<g id="node4" class="node">
<title>D</title>
<path fill="#fff7ec" stroke="#c27b2a" d="M704,-66C704,-66 528,-66 528,-66 522,-66 516,-60 516,-54 516,-54 516,-40 516,-40 516,-34 522,-28 528,-28 528,-28 704,-28 704,-28 710,-28 716,-34 716,-40 716,-40 716,-54 716,-54 716,-60 710,-66 704,-66"/>
<text text-anchor="middle" x="616" y="-50.8" font-family="Times,serif" font-size="14.00">Terraform + AWS</text>
<text text-anchor="middle" x="616" y="-35.8" font-family="Times,serif" font-size="14.00">ECS/Fargate architecture</text>
</g>
<!-- C&#45;&gt;D -->
<g id="edge3" class="edge">
<title>C&#45;&gt;D</title>
<path fill="none" stroke="#c27b2a" d="M479.26,-47C487.75,-47 496.63,-47 505.61,-47"/>
<polygon fill="#c27b2a" stroke="#c27b2a" points="505.77,-50.5 515.77,-47 505.77,-43.5 505.77,-50.5"/>
</g>
<!-- E -->
<g id="node5" class="node">
<title>E</title>
<path fill="#fff7d6" stroke="#aa8a2e" d="M930.4,-63.86C930.4,-63.86 765.1,-48.14 765.1,-48.14 759.13,-47.57 759.13,-46.43 765.1,-45.86 765.1,-45.86 930.4,-30.14 930.4,-30.14 936.37,-29.57 948.32,-29.57 954.29,-30.14 954.29,-30.14 1119.59,-45.86 1119.59,-45.86 1125.57,-46.43 1125.57,-47.57 1119.59,-48.14 1119.59,-48.14 954.29,-63.86 954.29,-63.86 948.32,-64.43 936.37,-64.43 930.4,-63.86"/>
<text text-anchor="middle" x="942.35" y="-43.3" font-family="Times,serif" font-size="14.00">AWS_DEPLOY_ENABLED?</text>
</g>
<!-- D&#45;&gt;E -->
<g id="edge4" class="edge">
<title>D&#45;&gt;E</title>
<path fill="none" stroke="#c27b2a" d="M716.08,-47C724.83,-47 733.88,-47 743.09,-47"/>
<polygon fill="#c27b2a" stroke="#c27b2a" points="743.14,-50.5 753.14,-47 743.14,-43.5 743.14,-50.5"/>
</g>
<!-- F -->
<g id="node6" class="node">
<title>F</title>
<path fill="#fff7ec" stroke="#c27b2a" d="M1317.69,-94C1317.69,-94 1204.69,-94 1204.69,-94 1198.69,-94 1192.69,-88 1192.69,-82 1192.69,-82 1192.69,-68 1192.69,-68 1192.69,-62 1198.69,-56 1204.69,-56 1204.69,-56 1317.69,-56 1317.69,-56 1323.69,-56 1329.69,-62 1329.69,-68 1329.69,-68 1329.69,-82 1329.69,-82 1329.69,-88 1323.69,-94 1317.69,-94"/>
<text text-anchor="middle" x="1261.19" y="-78.8" font-family="Times,serif" font-size="14.00">Controlled</text>
<text text-anchor="middle" x="1261.19" y="-63.8" font-family="Times,serif" font-size="14.00">deployment path</text>
</g>
<!-- E&#45;&gt;F -->
<g id="edge5" class="edge">
<title>E&#45;&gt;F</title>
<path fill="none" stroke="#c27b2a" d="M1041,-55.63C1086.45,-59.65 1139.76,-64.36 1182.43,-68.13"/>
<polygon fill="#c27b2a" stroke="#c27b2a" points="1182.21,-71.62 1192.48,-69.02 1182.83,-64.65 1182.21,-71.62"/>
<text text-anchor="middle" x="1162.19" y="-69.8" font-family="Times,serif" font-size="14.00">Yes</text>
</g>
<!-- G -->
<g id="node7" class="node">
<title>G</title>
<path fill="#fff7ec" stroke="#c27b2a" d="M1299.69,-38C1299.69,-38 1222.69,-38 1222.69,-38 1216.69,-38 1210.69,-32 1210.69,-26 1210.69,-26 1210.69,-12 1210.69,-12 1210.69,-6 1216.69,0 1222.69,0 1222.69,0 1299.69,0 1299.69,0 1305.69,0 1311.69,-6 1311.69,-12 1311.69,-12 1311.69,-26 1311.69,-26 1311.69,-32 1305.69,-38 1299.69,-38"/>
<text text-anchor="middle" x="1261.19" y="-22.8" font-family="Times,serif" font-size="14.00">Fail&#45;closed</text>
<text text-anchor="middle" x="1261.19" y="-7.8" font-family="Times,serif" font-size="14.00">safe default</text>
</g>
<!-- E&#45;&gt;G -->
<g id="edge6" class="edge">
<title>E&#45;&gt;G</title>
<path fill="none" stroke="#c27b2a" d="M1041,-38.37C1093.12,-33.76 1155.59,-28.24 1200.48,-24.28"/>
<polygon fill="#c27b2a" stroke="#c27b2a" points="1200.99,-27.75 1210.64,-23.38 1200.37,-20.77 1200.99,-27.75"/>
<text text-anchor="middle" x="1162.19" y="-31.8" font-family="Times,serif" font-size="14.00">No</text>
</g>
<!-- H -->
<g id="node8" class="node">
<title>H</title>
<path fill="#fff7ec" stroke="#c27b2a" d="M1493.69,-65C1493.69,-65 1378.69,-65 1378.69,-65 1372.69,-65 1366.69,-59 1366.69,-53 1366.69,-53 1366.69,-39 1366.69,-39 1366.69,-33 1372.69,-27 1378.69,-27 1378.69,-27 1493.69,-27 1493.69,-27 1499.69,-27 1505.69,-33 1505.69,-39 1505.69,-39 1505.69,-53 1505.69,-53 1505.69,-59 1499.69,-65 1493.69,-65"/>
<text text-anchor="middle" x="1436.19" y="-49.8" font-family="Times,serif" font-size="14.00">Release manifest</text>
<text text-anchor="middle" x="1436.19" y="-34.8" font-family="Times,serif" font-size="14.00">and evidence</text>
</g>
<!-- F&#45;&gt;H -->
<g id="edge7" class="edge">
<title>F&#45;&gt;H</title>
<path fill="none" stroke="#c27b2a" d="M1330.07,-63.62C1338.81,-62.16 1347.81,-60.65 1356.69,-59.16"/>
<polygon fill="#c27b2a" stroke="#c27b2a" points="1357.37,-62.59 1366.66,-57.49 1356.22,-55.69 1357.37,-62.59"/>
</g>
<!-- G&#45;&gt;H -->
<g id="edge8" class="edge">
<title>G&#45;&gt;H</title>
<path fill="none" stroke="#c27b2a" d="M1311.77,-26.74C1325.77,-28.92 1341.37,-31.36 1356.63,-33.74"/>
<polygon fill="#c27b2a" stroke="#c27b2a" points="1356.17,-37.21 1366.59,-35.29 1357.25,-30.29 1356.17,-37.21"/>
</g>
</g>
</svg>
